<mxfile host="65bd71144e">
    <diagram id="EYfYIhbMcfs3fcxKXPL2" name="Page-1">
        <mxGraphModel dx="2951" dy="2806" grid="1" gridSize="10" guides="1" tooltips="1" connect="1" arrows="1" fold="1" page="1" pageScale="1" pageWidth="827" pageHeight="1169" math="0" shadow="0">
            <root>
                <mxCell id="0"/>
                <mxCell id="1" parent="0"/>
                <mxCell id="11" style="edgeStyle=none;html=1;exitX=0.75;exitY=0;exitDx=0;exitDy=0;entryX=0.5;entryY=1;entryDx=0;entryDy=0;fontSize=17;" parent="1" source="2" target="20" edge="1">
                    <mxGeometry relative="1" as="geometry">
                        <mxPoint x="460" y="-250" as="targetPoint"/>
                    </mxGeometry>
                </mxCell>
                <mxCell id="12" style="edgeStyle=none;html=1;exitX=0;exitY=0.25;exitDx=0;exitDy=0;entryX=1;entryY=0.25;entryDx=0;entryDy=0;fontSize=17;" parent="1" source="2" target="3" edge="1">
                    <mxGeometry relative="1" as="geometry"/>
                </mxCell>
                <mxCell id="14" style="edgeStyle=none;html=1;exitX=1;exitY=0.25;exitDx=0;exitDy=0;entryX=0;entryY=0.25;entryDx=0;entryDy=0;fontSize=17;" parent="1" source="2" target="4" edge="1">
                    <mxGeometry relative="1" as="geometry"/>
                </mxCell>
                <mxCell id="2" value="Communication server&lt;br&gt;&lt;font style=&quot;font-size: 17px;&quot;&gt;Pulsar&lt;/font&gt;" style="rounded=1;whiteSpace=wrap;html=1;" parent="1" vertex="1">
                    <mxGeometry x="300" y="130" width="200" height="120" as="geometry"/>
                </mxCell>
                <mxCell id="13" style="edgeStyle=none;html=1;exitX=1;exitY=0.75;exitDx=0;exitDy=0;entryX=0;entryY=0.75;entryDx=0;entryDy=0;fontSize=17;" parent="1" source="3" target="2" edge="1">
                    <mxGeometry relative="1" as="geometry"/>
                </mxCell>
                <mxCell id="3" value="&lt;span style=&quot;font-size: 17px;&quot;&gt;SN (1)&lt;/span&gt;" style="rounded=1;whiteSpace=wrap;html=1;" parent="1" vertex="1">
                    <mxGeometry x="-70" y="130" width="200" height="120" as="geometry"/>
                </mxCell>
                <mxCell id="15" style="edgeStyle=none;html=1;exitX=0;exitY=0.75;exitDx=0;exitDy=0;entryX=1;entryY=0.75;entryDx=0;entryDy=0;fontSize=17;" parent="1" source="4" target="2" edge="1">
                    <mxGeometry relative="1" as="geometry"/>
                </mxCell>
                <mxCell id="4" value="&lt;span style=&quot;font-size: 17px;&quot;&gt;SN (2)&lt;/span&gt;" style="rounded=1;whiteSpace=wrap;html=1;" parent="1" vertex="1">
                    <mxGeometry x="690" y="130" width="200" height="120" as="geometry"/>
                </mxCell>
                <mxCell id="10" style="edgeStyle=none;html=1;exitX=0.5;exitY=1;exitDx=0;exitDy=0;entryX=0.25;entryY=0;entryDx=0;entryDy=0;fontSize=17;" parent="1" source="18" target="2" edge="1">
                    <mxGeometry relative="1" as="geometry">
                        <mxPoint x="380" y="-250" as="sourcePoint"/>
                    </mxGeometry>
                </mxCell>
                <mxCell id="16" style="edgeStyle=none;html=1;entryX=1;entryY=0.25;entryDx=0;entryDy=0;fontSize=17;exitX=-0.016;exitY=0.198;exitDx=0;exitDy=0;exitPerimeter=0;" parent="1" source="7" target="20" edge="1">
                    <mxGeometry relative="1" as="geometry">
                        <mxPoint x="730" y="-460" as="sourcePoint"/>
                    </mxGeometry>
                </mxCell>
                <mxCell id="17" style="edgeStyle=none;html=1;exitX=1;exitY=0.75;exitDx=0;exitDy=0;entryX=-0.013;entryY=0.809;entryDx=0;entryDy=0;entryPerimeter=0;fontSize=17;" parent="1" target="7" edge="1">
                    <mxGeometry relative="1" as="geometry">
                        <mxPoint x="500.00000000000045" y="-280" as="sourcePoint"/>
                    </mxGeometry>
                </mxCell>
                <mxCell id="7" value="" style="sketch=0;aspect=fixed;html=1;points=[];align=center;image;fontSize=12;image=img/lib/mscae/Cache_Redis_Product.svg;" parent="1" vertex="1">
                    <mxGeometry x="670" y="-360" width="119.05" height="100" as="geometry"/>
                </mxCell>
                <mxCell id="18" value="&lt;span style=&quot;font-size: 17px;&quot;&gt;master (1)&lt;/span&gt;" style="rounded=1;whiteSpace=wrap;html=1;" parent="1" vertex="1">
                    <mxGeometry x="300" y="-370" width="100" height="120" as="geometry"/>
                </mxCell>
                <mxCell id="20" value="&lt;span style=&quot;font-size: 17px;&quot;&gt;master (2)&lt;/span&gt;" style="rounded=1;whiteSpace=wrap;html=1;" parent="1" vertex="1">
                    <mxGeometry x="400" y="-370" width="100" height="120" as="geometry"/>
                </mxCell>
                <mxCell id="21" value="" style="endArrow=none;dashed=1;html=1;dashPattern=1 3;strokeWidth=2;fontSize=17;" parent="1" edge="1">
                    <mxGeometry width="50" height="50" relative="1" as="geometry">
                        <mxPoint x="280" y="-390" as="sourcePoint"/>
                        <mxPoint x="280" y="-230" as="targetPoint"/>
                    </mxGeometry>
                </mxCell>
                <mxCell id="22" value="" style="endArrow=none;dashed=1;html=1;dashPattern=1 3;strokeWidth=2;fontSize=17;" parent="1" edge="1">
                    <mxGeometry width="50" height="50" relative="1" as="geometry">
                        <mxPoint x="280" y="-230" as="sourcePoint"/>
                        <mxPoint x="520" y="-230" as="targetPoint"/>
                    </mxGeometry>
                </mxCell>
                <mxCell id="23" value="" style="endArrow=none;dashed=1;html=1;dashPattern=1 3;strokeWidth=2;fontSize=17;" parent="1" edge="1">
                    <mxGeometry width="50" height="50" relative="1" as="geometry">
                        <mxPoint x="280" y="-390" as="sourcePoint"/>
                        <mxPoint x="519.9999999999995" y="-390" as="targetPoint"/>
                        <Array as="points">
                            <mxPoint x="400" y="-390"/>
                        </Array>
                    </mxGeometry>
                </mxCell>
                <mxCell id="24" value="" style="endArrow=none;dashed=1;html=1;dashPattern=1 3;strokeWidth=2;fontSize=17;" parent="1" edge="1">
                    <mxGeometry width="50" height="50" relative="1" as="geometry">
                        <mxPoint x="520" y="-390" as="sourcePoint"/>
                        <mxPoint x="520" y="-230" as="targetPoint"/>
                        <Array as="points">
                            <mxPoint x="520" y="-300"/>
                        </Array>
                    </mxGeometry>
                </mxCell>
                <mxCell id="25" value="" style="endArrow=none;dashed=1;html=1;fontSize=17;exitX=0.5;exitY=0;exitDx=0;exitDy=0;entryX=0.5;entryY=1;entryDx=0;entryDy=0;" parent="1" target="130" edge="1">
                    <mxGeometry width="50" height="50" relative="1" as="geometry">
                        <mxPoint x="220" y="560" as="sourcePoint"/>
                        <mxPoint x="320" y="360" as="targetPoint"/>
                    </mxGeometry>
                </mxCell>
                <mxCell id="30" value="" style="image;html=1;image=img/lib/clip_art/computers/Server_Rack_128x128.png;fontSize=17;" parent="1" vertex="1">
                    <mxGeometry x="-150" y="150" width="80" height="80" as="geometry"/>
                </mxCell>
                <mxCell id="31" value="" style="image;html=1;image=img/lib/clip_art/computers/Server_Rack_128x128.png;fontSize=17;" parent="1" vertex="1">
                    <mxGeometry x="890" y="150" width="80" height="80" as="geometry"/>
                </mxCell>
                <mxCell id="32" value="" style="sketch=0;points=[[0,0,0],[0.25,0,0],[0.5,0,0],[0.75,0,0],[1,0,0],[0,1,0],[0.25,1,0],[0.5,1,0],[0.75,1,0],[1,1,0],[0,0.25,0],[0,0.5,0],[0,0.75,0],[1,0.25,0],[1,0.5,0],[1,0.75,0]];outlineConnect=0;fontColor=#232F3E;gradientColor=#945DF2;gradientDirection=north;fillColor=#5A30B5;strokeColor=#ffffff;dashed=0;verticalLabelPosition=bottom;verticalAlign=top;align=center;html=1;fontSize=12;fontStyle=0;aspect=fixed;shape=mxgraph.aws4.resourceIcon;resIcon=mxgraph.aws4.game_tech2;" parent="1" vertex="1">
                    <mxGeometry x="181" y="690" width="78" height="78" as="geometry"/>
                </mxCell>
                <mxCell id="33" value="" style="image;html=1;image=img/lib/clip_art/networking/Print_Server_128x128.png;fontSize=17;" parent="1" vertex="1">
                    <mxGeometry x="414" y="-470" width="80" height="80" as="geometry"/>
                </mxCell>
                <mxCell id="34" value="" style="image;html=1;image=img/lib/clip_art/networking/Print_Server_128x128.png;fontSize=17;" parent="1" vertex="1">
                    <mxGeometry x="310" y="-470" width="80" height="80" as="geometry"/>
                </mxCell>
                <mxCell id="96" value="" style="sketch=0;points=[[0,0,0],[0.25,0,0],[0.5,0,0],[0.75,0,0],[1,0,0],[0,1,0],[0.25,1,0],[0.5,1,0],[0.75,1,0],[1,1,0],[0,0.25,0],[0,0.5,0],[0,0.75,0],[1,0.25,0],[1,0.5,0],[1,0.75,0]];outlineConnect=0;fontColor=#232F3E;gradientColor=#945DF2;gradientDirection=north;fillColor=#5A30B5;strokeColor=#ffffff;dashed=0;verticalLabelPosition=bottom;verticalAlign=top;align=center;html=1;fontSize=12;fontStyle=0;aspect=fixed;shape=mxgraph.aws4.resourceIcon;resIcon=mxgraph.aws4.game_tech2;" parent="1" vertex="1">
                    <mxGeometry x="531.05" y="690" width="78" height="78" as="geometry"/>
                </mxCell>
                <mxCell id="97" value="" style="endArrow=none;dashed=1;html=1;fontSize=17;exitX=0.5;exitY=0;exitDx=0;exitDy=0;entryX=0.5;entryY=1;entryDx=0;entryDy=0;" parent="1" target="132" edge="1">
                    <mxGeometry width="50" height="50" relative="1" as="geometry">
                        <mxPoint x="570" y="560" as="sourcePoint"/>
                        <mxPoint x="480" y="360" as="targetPoint"/>
                    </mxGeometry>
                </mxCell>
                <mxCell id="99" style="edgeStyle=none;html=1;exitX=0.75;exitY=0;exitDx=0;exitDy=0;entryX=0.5;entryY=1;entryDx=0;entryDy=0;fontSize=17;" parent="1" source="102" target="113" edge="1">
                    <mxGeometry relative="1" as="geometry">
                        <mxPoint x="-960" y="-250" as="targetPoint"/>
                    </mxGeometry>
                </mxCell>
                <mxCell id="100" style="edgeStyle=none;html=1;exitX=0;exitY=0.25;exitDx=0;exitDy=0;entryX=1;entryY=0.25;entryDx=0;entryDy=0;fontSize=17;" parent="1" source="102" target="104" edge="1">
                    <mxGeometry relative="1" as="geometry"/>
                </mxCell>
                <mxCell id="101" style="edgeStyle=none;html=1;exitX=1;exitY=0.25;exitDx=0;exitDy=0;entryX=0;entryY=0.25;entryDx=0;entryDy=0;fontSize=17;" parent="1" source="102" target="106" edge="1">
                    <mxGeometry relative="1" as="geometry"/>
                </mxCell>
                <mxCell id="102" value="Communication server&lt;br&gt;&lt;span style=&quot;font-size: 17px;&quot;&gt;Kafka&lt;/span&gt;" style="rounded=1;whiteSpace=wrap;html=1;" parent="1" vertex="1">
                    <mxGeometry x="-1120" y="130" width="200" height="120" as="geometry"/>
                </mxCell>
                <mxCell id="103" style="edgeStyle=none;html=1;exitX=1;exitY=0.75;exitDx=0;exitDy=0;entryX=0;entryY=0.75;entryDx=0;entryDy=0;fontSize=17;" parent="1" source="104" target="102" edge="1">
                    <mxGeometry relative="1" as="geometry"/>
                </mxCell>
                <mxCell id="104" value="&lt;span style=&quot;font-size: 17px;&quot;&gt;SN (1)&amp;nbsp;&lt;/span&gt;&lt;span style=&quot;font-size: 17px;&quot;&gt;godot&lt;/span&gt;" style="rounded=1;whiteSpace=wrap;html=1;" parent="1" vertex="1">
                    <mxGeometry x="-1490" y="130" width="200" height="120" as="geometry"/>
                </mxCell>
                <mxCell id="105" style="edgeStyle=none;html=1;exitX=0;exitY=0.75;exitDx=0;exitDy=0;entryX=1;entryY=0.75;entryDx=0;entryDy=0;fontSize=17;" parent="1" source="106" target="102" edge="1">
                    <mxGeometry relative="1" as="geometry"/>
                </mxCell>
                <mxCell id="106" value="&lt;span style=&quot;font-size: 17px;&quot;&gt;SN (2)&amp;nbsp;&lt;/span&gt;&lt;span style=&quot;font-size: 17px;&quot;&gt;godot&lt;/span&gt;" style="rounded=1;whiteSpace=wrap;html=1;" parent="1" vertex="1">
                    <mxGeometry x="-730" y="130" width="200" height="120" as="geometry"/>
                </mxCell>
                <mxCell id="107" style="edgeStyle=none;html=1;exitX=0.5;exitY=1;exitDx=0;exitDy=0;entryX=0.25;entryY=0;entryDx=0;entryDy=0;fontSize=17;" parent="1" source="112" target="102" edge="1">
                    <mxGeometry relative="1" as="geometry">
                        <mxPoint x="-1040" y="-250" as="sourcePoint"/>
                    </mxGeometry>
                </mxCell>
                <mxCell id="108" style="edgeStyle=none;html=1;entryX=1;entryY=0.25;entryDx=0;entryDy=0;fontSize=17;exitX=-0.016;exitY=0.198;exitDx=0;exitDy=0;exitPerimeter=0;" parent="1" source="110" target="113" edge="1">
                    <mxGeometry relative="1" as="geometry">
                        <mxPoint x="-690" y="-460" as="sourcePoint"/>
                    </mxGeometry>
                </mxCell>
                <mxCell id="109" style="edgeStyle=none;html=1;exitX=1;exitY=0.75;exitDx=0;exitDy=0;entryX=-0.013;entryY=0.809;entryDx=0;entryDy=0;entryPerimeter=0;fontSize=17;" parent="1" target="110" edge="1">
                    <mxGeometry relative="1" as="geometry">
                        <mxPoint x="-920" y="-280.00000000000045" as="sourcePoint"/>
                    </mxGeometry>
                </mxCell>
                <mxCell id="110" value="" style="sketch=0;aspect=fixed;html=1;points=[];align=center;image;fontSize=12;image=img/lib/mscae/Cache_Redis_Product.svg;" parent="1" vertex="1">
                    <mxGeometry x="-750" y="-360" width="119.05" height="100" as="geometry"/>
                </mxCell>
                <mxCell id="111" value="&lt;span style=&quot;font-size: 17px;&quot;&gt;Client godot&amp;nbsp;&lt;br&gt;GUI&lt;br&gt;&lt;/span&gt;" style="rounded=1;whiteSpace=wrap;html=1;" parent="1" vertex="1">
                    <mxGeometry x="-1120" y="560" width="200" height="120" as="geometry"/>
                </mxCell>
                <mxCell id="112" value="&lt;span style=&quot;font-size: 17px;&quot;&gt;master (1)&lt;/span&gt;" style="rounded=1;whiteSpace=wrap;html=1;" parent="1" vertex="1">
                    <mxGeometry x="-1120" y="-370" width="100" height="120" as="geometry"/>
                </mxCell>
                <mxCell id="113" value="&lt;span style=&quot;font-size: 17px;&quot;&gt;master (2)&lt;/span&gt;" style="rounded=1;whiteSpace=wrap;html=1;" parent="1" vertex="1">
                    <mxGeometry x="-1020" y="-370" width="100" height="120" as="geometry"/>
                </mxCell>
                <mxCell id="114" value="" style="endArrow=none;dashed=1;html=1;dashPattern=1 3;strokeWidth=2;fontSize=17;" parent="1" edge="1">
                    <mxGeometry width="50" height="50" relative="1" as="geometry">
                        <mxPoint x="-1140" y="-390" as="sourcePoint"/>
                        <mxPoint x="-1140" y="-230.00000000000045" as="targetPoint"/>
                    </mxGeometry>
                </mxCell>
                <mxCell id="115" value="" style="endArrow=none;dashed=1;html=1;dashPattern=1 3;strokeWidth=2;fontSize=17;" parent="1" edge="1">
                    <mxGeometry width="50" height="50" relative="1" as="geometry">
                        <mxPoint x="-1140" y="-230.00000000000045" as="sourcePoint"/>
                        <mxPoint x="-900" y="-230.00000000000045" as="targetPoint"/>
                    </mxGeometry>
                </mxCell>
                <mxCell id="116" value="" style="endArrow=none;dashed=1;html=1;dashPattern=1 3;strokeWidth=2;fontSize=17;" parent="1" edge="1">
                    <mxGeometry width="50" height="50" relative="1" as="geometry">
                        <mxPoint x="-1140" y="-390" as="sourcePoint"/>
                        <mxPoint x="-900" y="-390" as="targetPoint"/>
                        <Array as="points">
                            <mxPoint x="-1020" y="-390"/>
                        </Array>
                    </mxGeometry>
                </mxCell>
                <mxCell id="117" value="" style="endArrow=none;dashed=1;html=1;dashPattern=1 3;strokeWidth=2;fontSize=17;" parent="1" edge="1">
                    <mxGeometry width="50" height="50" relative="1" as="geometry">
                        <mxPoint x="-900" y="-390" as="sourcePoint"/>
                        <mxPoint x="-900" y="-230.00000000000045" as="targetPoint"/>
                        <Array as="points">
                            <mxPoint x="-900" y="-300"/>
                        </Array>
                    </mxGeometry>
                </mxCell>
                <mxCell id="118" value="" style="endArrow=none;dashed=1;html=1;fontSize=17;exitX=0.5;exitY=0;exitDx=0;exitDy=0;entryX=0.5;entryY=1;entryDx=0;entryDy=0;" parent="1" source="111" target="102" edge="1">
                    <mxGeometry width="50" height="50" relative="1" as="geometry">
                        <mxPoint x="-1120" y="420" as="sourcePoint"/>
                        <mxPoint x="-1070" y="370" as="targetPoint"/>
                    </mxGeometry>
                </mxCell>
                <mxCell id="119" value="" style="image;html=1;image=img/lib/clip_art/computers/Server_Rack_128x128.png;fontSize=17;" parent="1" vertex="1">
                    <mxGeometry x="-1570" y="150" width="80" height="80" as="geometry"/>
                </mxCell>
                <mxCell id="120" value="" style="image;html=1;image=img/lib/clip_art/computers/Server_Rack_128x128.png;fontSize=17;" parent="1" vertex="1">
                    <mxGeometry x="-530" y="150" width="80" height="80" as="geometry"/>
                </mxCell>
                <mxCell id="121" value="" style="sketch=0;points=[[0,0,0],[0.25,0,0],[0.5,0,0],[0.75,0,0],[1,0,0],[0,1,0],[0.25,1,0],[0.5,1,0],[0.75,1,0],[1,1,0],[0,0.25,0],[0,0.5,0],[0,0.75,0],[1,0.25,0],[1,0.5,0],[1,0.75,0]];outlineConnect=0;fontColor=#232F3E;gradientColor=#945DF2;gradientDirection=north;fillColor=#5A30B5;strokeColor=#ffffff;dashed=0;verticalLabelPosition=bottom;verticalAlign=top;align=center;html=1;fontSize=12;fontStyle=0;aspect=fixed;shape=mxgraph.aws4.resourceIcon;resIcon=mxgraph.aws4.game_tech2;" parent="1" vertex="1">
                    <mxGeometry x="-1059" y="690" width="78" height="78" as="geometry"/>
                </mxCell>
                <mxCell id="122" value="" style="image;html=1;image=img/lib/clip_art/networking/Print_Server_128x128.png;fontSize=17;" parent="1" vertex="1">
                    <mxGeometry x="-1006" y="-470" width="80" height="80" as="geometry"/>
                </mxCell>
                <mxCell id="123" value="" style="image;html=1;image=img/lib/clip_art/networking/Print_Server_128x128.png;fontSize=17;" parent="1" vertex="1">
                    <mxGeometry x="-1110" y="-470" width="80" height="80" as="geometry"/>
                </mxCell>
                <mxCell id="124" value="&lt;span style=&quot;font-size: 17px;&quot;&gt;Client godot&amp;nbsp;&lt;br&gt;GUI&lt;br&gt;&lt;/span&gt;" style="rounded=1;whiteSpace=wrap;html=1;" parent="1" vertex="1">
                    <mxGeometry x="120" y="570" width="200" height="120" as="geometry"/>
                </mxCell>
                <mxCell id="125" value="&lt;span style=&quot;font-size: 17px;&quot;&gt;Client godot&amp;nbsp;&lt;br&gt;GUI&lt;br&gt;&lt;/span&gt;" style="rounded=1;whiteSpace=wrap;html=1;" parent="1" vertex="1">
                    <mxGeometry x="470.04999999999995" y="570" width="200" height="120" as="geometry"/>
                </mxCell>
                <mxCell id="126" value="topic" style="rounded=1;whiteSpace=wrap;html=1;fontSize=17;" parent="1" vertex="1">
                    <mxGeometry x="294" y="250" width="50" height="40" as="geometry"/>
                </mxCell>
                <mxCell id="127" value="" style="rounded=1;whiteSpace=wrap;html=1;fontSize=17;" parent="1" vertex="1">
                    <mxGeometry x="344" y="250" width="50" height="40" as="geometry"/>
                </mxCell>
                <mxCell id="128" value="" style="rounded=1;whiteSpace=wrap;html=1;fontSize=17;" parent="1" vertex="1">
                    <mxGeometry x="444" y="250" width="50" height="40" as="geometry"/>
                </mxCell>
                <mxCell id="129" value="" style="rounded=1;whiteSpace=wrap;html=1;fontSize=17;" parent="1" vertex="1">
                    <mxGeometry x="394" y="250" width="50" height="40" as="geometry"/>
                </mxCell>
                <mxCell id="130" value="5" style="rounded=1;whiteSpace=wrap;html=1;fontSize=17;" parent="1" vertex="1">
                    <mxGeometry x="294" y="290" width="50" height="40" as="geometry"/>
                </mxCell>
                <mxCell id="131" value="" style="rounded=1;whiteSpace=wrap;html=1;fontSize=17;" parent="1" vertex="1">
                    <mxGeometry x="344" y="290" width="50" height="40" as="geometry"/>
                </mxCell>
                <mxCell id="132" value="" style="rounded=1;whiteSpace=wrap;html=1;fontSize=17;" parent="1" vertex="1">
                    <mxGeometry x="444" y="290" width="50" height="40" as="geometry"/>
                </mxCell>
                <mxCell id="133" value="" style="rounded=1;whiteSpace=wrap;html=1;fontSize=17;" parent="1" vertex="1">
                    <mxGeometry x="394" y="290" width="50" height="40" as="geometry"/>
                </mxCell>
                <mxCell id="134" value="" style="endArrow=none;dashed=1;html=1;fontSize=17;exitX=0;exitY=0.5;exitDx=0;exitDy=0;" parent="1" source="130" edge="1">
                    <mxGeometry width="50" height="50" relative="1" as="geometry">
                        <mxPoint x="80" y="280" as="sourcePoint"/>
                        <mxPoint x="80" y="250" as="targetPoint"/>
                    </mxGeometry>
                </mxCell>
                <mxCell id="135" value="" style="endArrow=none;dashed=1;html=1;fontSize=17;exitX=0;exitY=0.5;exitDx=0;exitDy=0;" parent="1" edge="1">
                    <mxGeometry width="50" height="50" relative="1" as="geometry">
                        <mxPoint x="764" y="250" as="sourcePoint"/>
                        <mxPoint x="500" y="310" as="targetPoint"/>
                    </mxGeometry>
                </mxCell>
                <mxCell id="136" value="admin" style="text;html=1;align=center;verticalAlign=middle;resizable=0;points=[];autosize=1;strokeColor=none;fillColor=none;fontSize=17;" parent="1" vertex="1">
                    <mxGeometry x="150" y="290" width="70" height="30" as="geometry"/>
                </mxCell>
                <mxCell id="137" value="admin" style="text;html=1;align=center;verticalAlign=middle;resizable=0;points=[];autosize=1;strokeColor=none;fillColor=none;fontSize=17;" parent="1" vertex="1">
                    <mxGeometry x="600" y="295" width="70" height="30" as="geometry"/>
                </mxCell>
                <mxCell id="142" value="Redis" style="text;html=1;align=center;verticalAlign=middle;resizable=0;points=[];autosize=1;strokeColor=none;fillColor=none;fontSize=17;" parent="1" vertex="1">
                    <mxGeometry x="694.52" y="-430" width="70" height="30" as="geometry"/>
                </mxCell>
                <mxCell id="143" value="State&lt;br&gt;Log" style="text;html=1;align=center;verticalAlign=middle;resizable=0;points=[];autosize=1;strokeColor=none;fillColor=none;fontSize=17;" parent="1" vertex="1">
                    <mxGeometry x="580" y="-490" width="60" height="50" as="geometry"/>
                </mxCell>
                <mxCell id="145" value="" style="endArrow=none;dashed=1;html=1;fontSize=17;entryX=0.5;entryY=1;entryDx=0;entryDy=0;" parent="1" edge="1">
                    <mxGeometry width="50" height="50" relative="1" as="geometry">
                        <mxPoint x="820" y="450" as="sourcePoint"/>
                        <mxPoint y="450" as="targetPoint"/>
                    </mxGeometry>
                </mxCell>
            </root>
        </mxGraphModel>
    </diagram>
</mxfile>